<mxfile host="Electron" modified="2023-11-15T18:00:12.108Z" agent="Mozilla/5.0 (Windows NT 10.0; Win64; x64) AppleWebKit/537.36 (KHTML, like Gecko) draw.io/22.0.2 Chrome/114.0.5735.289 Electron/25.8.4 Safari/537.36" etag="bBH7vRKcWBksKBV1g4aY" version="22.0.2" type="device">
  <diagram name="Сторінка-1" id="FJgvljAaFg0y_B_aLwMl">
    <mxGraphModel dx="482" dy="682" grid="1" gridSize="10" guides="1" tooltips="1" connect="1" arrows="1" fold="1" page="0" pageScale="1" pageWidth="827" pageHeight="1169" math="0" shadow="0">
      <root>
        <mxCell id="0" />
        <mxCell id="1" parent="0" />
        <mxCell id="sZ3NpN20xYw19pVCke19-58" value="" style="rounded=0;whiteSpace=wrap;html=1;fillColor=none;strokeColor=#999999;strokeWidth=1;" parent="1" vertex="1">
          <mxGeometry x="180" y="40" width="480" height="490" as="geometry" />
        </mxCell>
        <mxCell id="sZ3NpN20xYw19pVCke19-9" value="" style="group" parent="1" vertex="1" connectable="0">
          <mxGeometry x="360" y="240" width="120" height="140" as="geometry" />
        </mxCell>
        <mxCell id="sZ3NpN20xYw19pVCke19-1" value="&lt;b&gt;MainActivity&lt;/b&gt;" style="rounded=0;whiteSpace=wrap;html=1;" parent="sZ3NpN20xYw19pVCke19-9" vertex="1">
          <mxGeometry width="120" height="20" as="geometry" />
        </mxCell>
        <mxCell id="sZ3NpN20xYw19pVCke19-2" value="ToolBar&lt;br&gt;RecyclerView&lt;br&gt;CreateTask" style="rounded=0;whiteSpace=wrap;html=1;align=left;" parent="sZ3NpN20xYw19pVCke19-9" vertex="1">
          <mxGeometry y="20" width="120" height="50" as="geometry" />
        </mxCell>
        <mxCell id="sZ3NpN20xYw19pVCke19-8" value="onCreate()&lt;br&gt;setToolBar()&lt;br&gt;setCreateTask()&lt;br&gt;returnTask()" style="rounded=0;whiteSpace=wrap;html=1;align=left;" parent="sZ3NpN20xYw19pVCke19-9" vertex="1">
          <mxGeometry y="70" width="120" height="70" as="geometry" />
        </mxCell>
        <mxCell id="sZ3NpN20xYw19pVCke19-10" value="" style="group" parent="1" vertex="1" connectable="0">
          <mxGeometry x="360" y="60" width="120" height="140" as="geometry" />
        </mxCell>
        <mxCell id="sZ3NpN20xYw19pVCke19-4" value="MainViewModel" style="rounded=0;whiteSpace=wrap;html=1;" parent="sZ3NpN20xYw19pVCke19-10" vertex="1">
          <mxGeometry width="120" height="20" as="geometry" />
        </mxCell>
        <mxCell id="sZ3NpN20xYw19pVCke19-5" value="list&amp;lt;Task&amp;gt;" style="rounded=0;whiteSpace=wrap;html=1;align=left;" parent="sZ3NpN20xYw19pVCke19-10" vertex="1">
          <mxGeometry y="20" width="120" height="20" as="geometry" />
        </mxCell>
        <mxCell id="sZ3NpN20xYw19pVCke19-6" value="LoadTask()&lt;br&gt;addTask()&lt;br&gt;deleteTask()&lt;br&gt;updateTask()&lt;br&gt;returnTask()&lt;br&gt;updateRangeTask()" style="rounded=0;whiteSpace=wrap;html=1;align=left;" parent="sZ3NpN20xYw19pVCke19-10" vertex="1">
          <mxGeometry y="40" width="120" height="100" as="geometry" />
        </mxCell>
        <mxCell id="sZ3NpN20xYw19pVCke19-20" value="" style="group" parent="1" vertex="1" connectable="0">
          <mxGeometry x="200" y="400" width="120" height="90" as="geometry" />
        </mxCell>
        <mxCell id="sZ3NpN20xYw19pVCke19-11" value="EditTaskWindow" style="rounded=0;whiteSpace=wrap;html=1;" parent="sZ3NpN20xYw19pVCke19-20" vertex="1">
          <mxGeometry width="120" height="20" as="geometry" />
        </mxCell>
        <mxCell id="sZ3NpN20xYw19pVCke19-13" value="EditText" style="rounded=0;whiteSpace=wrap;html=1;align=left;" parent="sZ3NpN20xYw19pVCke19-20" vertex="1">
          <mxGeometry y="20" width="120" height="20" as="geometry" />
        </mxCell>
        <mxCell id="sZ3NpN20xYw19pVCke19-14" value="save()&lt;br&gt;delete()&lt;br&gt;&lt;div style=&quot;&quot;&gt;&lt;span style=&quot;background-color: initial;&quot;&gt;close()&lt;/span&gt;&lt;/div&gt;" style="rounded=0;whiteSpace=wrap;html=1;align=left;" parent="sZ3NpN20xYw19pVCke19-20" vertex="1">
          <mxGeometry y="40" width="120" height="50" as="geometry" />
        </mxCell>
        <mxCell id="sZ3NpN20xYw19pVCke19-24" value="" style="group" parent="1" vertex="1" connectable="0">
          <mxGeometry x="360" y="400" width="120" height="110" as="geometry" />
        </mxCell>
        <mxCell id="sZ3NpN20xYw19pVCke19-21" value="MainRecyclerAdapter" style="rounded=0;whiteSpace=wrap;html=1;" parent="sZ3NpN20xYw19pVCke19-24" vertex="1">
          <mxGeometry width="120" height="20" as="geometry" />
        </mxCell>
        <mxCell id="sZ3NpN20xYw19pVCke19-22" value="list&amp;lt;Task&amp;gt;" style="rounded=0;whiteSpace=wrap;html=1;align=left;" parent="sZ3NpN20xYw19pVCke19-24" vertex="1">
          <mxGeometry y="20" width="120" height="20" as="geometry" />
        </mxCell>
        <mxCell id="sZ3NpN20xYw19pVCke19-23" value="openEditTask()&lt;br&gt;doneTask()&lt;br&gt;moveTask()&lt;br&gt;addTask()" style="rounded=0;whiteSpace=wrap;html=1;align=left;" parent="sZ3NpN20xYw19pVCke19-24" vertex="1">
          <mxGeometry y="40" width="120" height="70" as="geometry" />
        </mxCell>
        <mxCell id="sZ3NpN20xYw19pVCke19-25" value="ItemTouch&lt;br&gt;HelperCallback" style="rounded=0;whiteSpace=wrap;html=1;" parent="1" vertex="1">
          <mxGeometry x="520" y="470" width="120" height="40" as="geometry" />
        </mxCell>
        <mxCell id="sZ3NpN20xYw19pVCke19-57" style="edgeStyle=orthogonalEdgeStyle;rounded=0;orthogonalLoop=1;jettySize=auto;html=1;entryX=0.5;entryY=1;entryDx=0;entryDy=0;endArrow=classic;endFill=1;startArrow=classic;startFill=1;" parent="1" source="sZ3NpN20xYw19pVCke19-26" target="sZ3NpN20xYw19pVCke19-43" edge="1">
          <mxGeometry relative="1" as="geometry" />
        </mxCell>
        <mxCell id="sZ3NpN20xYw19pVCke19-40" value="" style="group" parent="1" vertex="1" connectable="0">
          <mxGeometry x="520" y="390" width="120" height="60" as="geometry" />
        </mxCell>
        <mxCell id="sZ3NpN20xYw19pVCke19-37" value="DoneRecyclerAdapter" style="rounded=0;whiteSpace=wrap;html=1;" parent="sZ3NpN20xYw19pVCke19-40" vertex="1">
          <mxGeometry width="120" height="20" as="geometry" />
        </mxCell>
        <mxCell id="sZ3NpN20xYw19pVCke19-38" value="list&amp;lt;Task&amp;gt;" style="rounded=0;whiteSpace=wrap;html=1;align=left;" parent="sZ3NpN20xYw19pVCke19-40" vertex="1">
          <mxGeometry y="20" width="120" height="20" as="geometry" />
        </mxCell>
        <mxCell id="sZ3NpN20xYw19pVCke19-39" value="unDoneTask()" style="rounded=0;whiteSpace=wrap;html=1;align=left;" parent="sZ3NpN20xYw19pVCke19-40" vertex="1">
          <mxGeometry y="40" width="120" height="20" as="geometry" />
        </mxCell>
        <mxCell id="sZ3NpN20xYw19pVCke19-44" value="" style="group" parent="1" vertex="1" connectable="0">
          <mxGeometry x="520" y="100" width="120" height="90" as="geometry" />
        </mxCell>
        <mxCell id="sZ3NpN20xYw19pVCke19-41" value="DoneViewModel" style="rounded=0;whiteSpace=wrap;html=1;" parent="sZ3NpN20xYw19pVCke19-44" vertex="1">
          <mxGeometry width="120" height="20" as="geometry" />
        </mxCell>
        <mxCell id="sZ3NpN20xYw19pVCke19-42" value="list&amp;lt;Task&amp;gt;" style="rounded=0;whiteSpace=wrap;html=1;align=left;" parent="sZ3NpN20xYw19pVCke19-44" vertex="1">
          <mxGeometry y="20" width="120" height="20" as="geometry" />
        </mxCell>
        <mxCell id="sZ3NpN20xYw19pVCke19-43" value="LoadTask()&lt;br&gt;upadteTask()&lt;br&gt;deleteTask()" style="rounded=0;whiteSpace=wrap;html=1;align=left;" parent="sZ3NpN20xYw19pVCke19-44" vertex="1">
          <mxGeometry y="40" width="120" height="50" as="geometry" />
        </mxCell>
        <mxCell id="sZ3NpN20xYw19pVCke19-47" value="" style="group" parent="1" vertex="1" connectable="0">
          <mxGeometry x="200" y="240" width="120" height="40" as="geometry" />
        </mxCell>
        <mxCell id="sZ3NpN20xYw19pVCke19-45" value="InformationActivity" style="rounded=0;whiteSpace=wrap;html=1;" parent="sZ3NpN20xYw19pVCke19-47" vertex="1">
          <mxGeometry width="120" height="20" as="geometry" />
        </mxCell>
        <mxCell id="sZ3NpN20xYw19pVCke19-46" value="Information&lt;br&gt;" style="rounded=0;whiteSpace=wrap;html=1;align=left;" parent="sZ3NpN20xYw19pVCke19-47" vertex="1">
          <mxGeometry y="20" width="120" height="20" as="geometry" />
        </mxCell>
        <mxCell id="sZ3NpN20xYw19pVCke19-48" style="edgeStyle=orthogonalEdgeStyle;rounded=0;orthogonalLoop=1;jettySize=auto;html=1;entryX=0;entryY=0.5;entryDx=0;entryDy=0;" parent="1" source="sZ3NpN20xYw19pVCke19-2" target="sZ3NpN20xYw19pVCke19-27" edge="1">
          <mxGeometry relative="1" as="geometry" />
        </mxCell>
        <mxCell id="sZ3NpN20xYw19pVCke19-49" style="edgeStyle=orthogonalEdgeStyle;rounded=0;orthogonalLoop=1;jettySize=auto;html=1;entryX=1;entryY=0.25;entryDx=0;entryDy=0;" parent="1" source="sZ3NpN20xYw19pVCke19-2" target="sZ3NpN20xYw19pVCke19-46" edge="1">
          <mxGeometry relative="1" as="geometry">
            <Array as="points">
              <mxPoint x="340" y="285" />
              <mxPoint x="340" y="265" />
            </Array>
          </mxGeometry>
        </mxCell>
        <mxCell id="sZ3NpN20xYw19pVCke19-50" style="edgeStyle=orthogonalEdgeStyle;rounded=0;orthogonalLoop=1;jettySize=auto;html=1;entryX=0;entryY=0.5;entryDx=0;entryDy=0;dashed=1;" parent="1" source="sZ3NpN20xYw19pVCke19-23" target="sZ3NpN20xYw19pVCke19-25" edge="1">
          <mxGeometry relative="1" as="geometry" />
        </mxCell>
        <mxCell id="sZ3NpN20xYw19pVCke19-52" style="edgeStyle=orthogonalEdgeStyle;rounded=0;orthogonalLoop=1;jettySize=auto;html=1;entryX=0;entryY=0.5;entryDx=0;entryDy=0;endArrow=diamond;endFill=1;" parent="1" source="sZ3NpN20xYw19pVCke19-11" target="sZ3NpN20xYw19pVCke19-21" edge="1">
          <mxGeometry relative="1" as="geometry" />
        </mxCell>
        <mxCell id="sZ3NpN20xYw19pVCke19-54" style="edgeStyle=orthogonalEdgeStyle;rounded=0;orthogonalLoop=1;jettySize=auto;html=1;entryX=0.5;entryY=1;entryDx=0;entryDy=0;endArrow=diamond;endFill=1;" parent="1" source="sZ3NpN20xYw19pVCke19-21" target="sZ3NpN20xYw19pVCke19-8" edge="1">
          <mxGeometry relative="1" as="geometry" />
        </mxCell>
        <mxCell id="sZ3NpN20xYw19pVCke19-55" style="edgeStyle=orthogonalEdgeStyle;rounded=0;orthogonalLoop=1;jettySize=auto;html=1;entryX=0.5;entryY=1;entryDx=0;entryDy=0;endArrow=diamond;endFill=1;" parent="1" source="sZ3NpN20xYw19pVCke19-37" target="sZ3NpN20xYw19pVCke19-30" edge="1">
          <mxGeometry relative="1" as="geometry" />
        </mxCell>
        <mxCell id="sZ3NpN20xYw19pVCke19-56" style="edgeStyle=orthogonalEdgeStyle;rounded=0;orthogonalLoop=1;jettySize=auto;html=1;entryX=0.5;entryY=1;entryDx=0;entryDy=0;startArrow=classic;startFill=1;" parent="1" source="sZ3NpN20xYw19pVCke19-1" target="sZ3NpN20xYw19pVCke19-6" edge="1">
          <mxGeometry relative="1" as="geometry" />
        </mxCell>
        <mxCell id="sZ3NpN20xYw19pVCke19-59" value="&lt;font color=&quot;#999999&quot; style=&quot;font-size: 16px;&quot;&gt;UI level&lt;/font&gt;" style="text;html=1;strokeColor=none;fillColor=none;align=center;verticalAlign=middle;whiteSpace=wrap;rounded=0;fontSize=16;" parent="1" vertex="1">
          <mxGeometry x="190" y="50" width="60" height="30" as="geometry" />
        </mxCell>
        <mxCell id="sZ3NpN20xYw19pVCke19-78" style="edgeStyle=orthogonalEdgeStyle;rounded=0;orthogonalLoop=1;jettySize=auto;html=1;entryX=0.5;entryY=0;entryDx=0;entryDy=0;endArrow=none;endFill=0;" parent="1" source="sZ3NpN20xYw19pVCke19-60" target="sZ3NpN20xYw19pVCke19-61" edge="1">
          <mxGeometry relative="1" as="geometry" />
        </mxCell>
        <mxCell id="sZ3NpN20xYw19pVCke19-60" value="DataBase" style="shape=cylinder3;whiteSpace=wrap;html=1;boundedLbl=1;backgroundOutline=1;size=5.741921701738903;" parent="1" vertex="1">
          <mxGeometry x="200" y="-170" width="120" height="40" as="geometry" />
        </mxCell>
        <mxCell id="sZ3NpN20xYw19pVCke19-64" value="" style="group" parent="1" vertex="1" connectable="0">
          <mxGeometry x="200" y="-110" width="120" height="130" as="geometry" />
        </mxCell>
        <mxCell id="sZ3NpN20xYw19pVCke19-61" value="RoomDatabase" style="rounded=0;whiteSpace=wrap;html=1;" parent="sZ3NpN20xYw19pVCke19-64" vertex="1">
          <mxGeometry width="120" height="20" as="geometry" />
        </mxCell>
        <mxCell id="sZ3NpN20xYw19pVCke19-62" value="Entity&lt;br&gt;Duo" style="rounded=0;whiteSpace=wrap;html=1;align=left;" parent="sZ3NpN20xYw19pVCke19-64" vertex="1">
          <mxGeometry y="20" width="120" height="30" as="geometry" />
        </mxCell>
        <mxCell id="sZ3NpN20xYw19pVCke19-63" value="selectUnDoneTask()&lt;br&gt;selectDoneTask()&lt;br&gt;updateTask()&lt;br&gt;deleteTask()&lt;br&gt;selectTaskById()" style="rounded=0;whiteSpace=wrap;html=1;align=left;" parent="sZ3NpN20xYw19pVCke19-64" vertex="1">
          <mxGeometry y="50" width="120" height="80" as="geometry" />
        </mxCell>
        <mxCell id="sZ3NpN20xYw19pVCke19-67" value="" style="group" parent="1" vertex="1" connectable="0">
          <mxGeometry x="560" y="-170" width="80" height="80" as="geometry" />
        </mxCell>
        <mxCell id="sZ3NpN20xYw19pVCke19-65" value="Task" style="rounded=0;whiteSpace=wrap;html=1;" parent="sZ3NpN20xYw19pVCke19-67" vertex="1">
          <mxGeometry width="80" height="20" as="geometry" />
        </mxCell>
        <mxCell id="sZ3NpN20xYw19pVCke19-66" value="id&lt;br&gt;text&lt;br&gt;isDone&lt;br&gt;position" style="rounded=0;whiteSpace=wrap;html=1;align=left;" parent="sZ3NpN20xYw19pVCke19-67" vertex="1">
          <mxGeometry y="20" width="80" height="60" as="geometry" />
        </mxCell>
        <mxCell id="sZ3NpN20xYw19pVCke19-71" value="" style="group" parent="1" vertex="1" connectable="0">
          <mxGeometry x="360" y="-100" width="120" height="120" as="geometry" />
        </mxCell>
        <mxCell id="sZ3NpN20xYw19pVCke19-68" value="MainRepository" style="rounded=0;whiteSpace=wrap;html=1;" parent="sZ3NpN20xYw19pVCke19-71" vertex="1">
          <mxGeometry width="120" height="20" as="geometry" />
        </mxCell>
        <mxCell id="sZ3NpN20xYw19pVCke19-69" value="loadTask()&lt;br&gt;addTask()&lt;br&gt;updateTask()&lt;br&gt;deleteTask()&lt;br&gt;updateRangeTask()&lt;br&gt;selectTaskById()" style="rounded=0;whiteSpace=wrap;html=1;align=left;" parent="sZ3NpN20xYw19pVCke19-71" vertex="1">
          <mxGeometry y="20" width="120" height="100" as="geometry" />
        </mxCell>
        <mxCell id="sZ3NpN20xYw19pVCke19-74" value="" style="group" parent="1" vertex="1" connectable="0">
          <mxGeometry x="520" y="-60" width="120" height="80" as="geometry" />
        </mxCell>
        <mxCell id="sZ3NpN20xYw19pVCke19-70" value="DoneRepository" style="rounded=0;whiteSpace=wrap;html=1;" parent="sZ3NpN20xYw19pVCke19-74" vertex="1">
          <mxGeometry width="120" height="20" as="geometry" />
        </mxCell>
        <mxCell id="sZ3NpN20xYw19pVCke19-73" value="loadTask()&lt;br&gt;unDoneTask()&lt;br&gt;deleteTasks()" style="rounded=0;whiteSpace=wrap;html=1;align=left;" parent="sZ3NpN20xYw19pVCke19-74" vertex="1">
          <mxGeometry y="20" width="120" height="60" as="geometry" />
        </mxCell>
        <mxCell id="sZ3NpN20xYw19pVCke19-75" style="edgeStyle=orthogonalEdgeStyle;rounded=0;orthogonalLoop=1;jettySize=auto;html=1;entryX=0.5;entryY=0;entryDx=0;entryDy=0;startArrow=classic;startFill=1;" parent="1" source="sZ3NpN20xYw19pVCke19-69" target="sZ3NpN20xYw19pVCke19-4" edge="1">
          <mxGeometry relative="1" as="geometry" />
        </mxCell>
        <mxCell id="sZ3NpN20xYw19pVCke19-76" style="edgeStyle=orthogonalEdgeStyle;rounded=0;orthogonalLoop=1;jettySize=auto;html=1;startArrow=classic;startFill=1;" parent="1" source="sZ3NpN20xYw19pVCke19-73" target="sZ3NpN20xYw19pVCke19-41" edge="1">
          <mxGeometry relative="1" as="geometry" />
        </mxCell>
        <mxCell id="sZ3NpN20xYw19pVCke19-77" style="edgeStyle=orthogonalEdgeStyle;rounded=0;orthogonalLoop=1;jettySize=auto;html=1;entryX=1;entryY=0.5;entryDx=0;entryDy=0;" parent="1" source="sZ3NpN20xYw19pVCke19-69" target="sZ3NpN20xYw19pVCke19-63" edge="1">
          <mxGeometry relative="1" as="geometry">
            <mxPoint x="330" y="-30" as="targetPoint" />
            <Array as="points">
              <mxPoint x="350" y="-20" />
              <mxPoint x="350" y="-20" />
            </Array>
          </mxGeometry>
        </mxCell>
        <mxCell id="sZ3NpN20xYw19pVCke19-79" style="edgeStyle=orthogonalEdgeStyle;rounded=0;orthogonalLoop=1;jettySize=auto;html=1;endArrow=none;endFill=0;startArrow=classic;startFill=1;entryX=1;entryY=0.5;entryDx=0;entryDy=0;" parent="1" source="sZ3NpN20xYw19pVCke19-73" target="sZ3NpN20xYw19pVCke19-63" edge="1">
          <mxGeometry relative="1" as="geometry">
            <mxPoint x="320" y="-30" as="targetPoint" />
            <Array as="points">
              <mxPoint x="500" y="-10" />
              <mxPoint x="500" y="-120" />
              <mxPoint x="340" y="-120" />
              <mxPoint x="340" y="-20" />
            </Array>
          </mxGeometry>
        </mxCell>
        <mxCell id="sZ3NpN20xYw19pVCke19-80" value="" style="rounded=0;whiteSpace=wrap;html=1;fillColor=none;strokeColor=#999999;strokeWidth=1;" parent="1" vertex="1">
          <mxGeometry x="180" y="-190" width="480" height="230" as="geometry" />
        </mxCell>
        <mxCell id="sZ3NpN20xYw19pVCke19-81" value="&lt;font color=&quot;#999999&quot; style=&quot;font-size: 16px;&quot;&gt;Data level&lt;/font&gt;" style="text;html=1;strokeColor=none;fillColor=none;align=center;verticalAlign=middle;whiteSpace=wrap;rounded=0;fontSize=16;" parent="1" vertex="1">
          <mxGeometry x="380" y="-170" width="80" height="30" as="geometry" />
        </mxCell>
        <mxCell id="sZ3NpN20xYw19pVCke19-84" value="" style="group" parent="1" vertex="1" connectable="0">
          <mxGeometry x="520" y="230" width="120" height="110" as="geometry" />
        </mxCell>
        <mxCell id="sZ3NpN20xYw19pVCke19-26" value="DoneActivity" style="rounded=0;whiteSpace=wrap;html=1;" parent="sZ3NpN20xYw19pVCke19-84" vertex="1">
          <mxGeometry width="120" height="20" as="geometry" />
        </mxCell>
        <mxCell id="sZ3NpN20xYw19pVCke19-27" value="ToolBar&lt;br&gt;RecyclerView&lt;br&gt;DeleteBtn" style="rounded=0;whiteSpace=wrap;html=1;align=left;" parent="sZ3NpN20xYw19pVCke19-84" vertex="1">
          <mxGeometry y="20" width="120" height="50" as="geometry" />
        </mxCell>
        <mxCell id="sZ3NpN20xYw19pVCke19-30" value="onCreate()&lt;br&gt;deleteTask()" style="rounded=0;whiteSpace=wrap;html=1;align=left;" parent="sZ3NpN20xYw19pVCke19-84" vertex="1">
          <mxGeometry y="70" width="120" height="40" as="geometry" />
        </mxCell>
      </root>
    </mxGraphModel>
  </diagram>
</mxfile>
